<?xml version='1.0' encoding='UTF-8' standalone='no'?>
<svg xmlns:xlink="http://www.w3.org/1999/xlink" version="1.2" width="130.175mm" baseProfile="tiny" xmlns="http://www.w3.org/2000/svg" viewBox="0 0 369 294" height="103.717mm">
  <title>Simply Paint</title>
  <desc>Filed created by Simply Paint.</desc>
  <defs/>
  <g fill="none" stroke-linecap="square" stroke-width="1" stroke="black" stroke-linejoin="bevel" fill-rule="evenodd">
    <g font-size="7.8" stroke-opacity="1" fill="#0000ff" font-family="MS Shell Dlg 2" stroke-linecap="square" font-weight="400" stroke-width="3" fill-opacity="1" transform="matrix(0.999538,0,0,0.999538,295.022,270.011)" font-style="normal" stroke="#ff0000" stroke-linejoin="bevel">
      <path d="M0,0 L0,20 L20,20 L20,0 L0,0" vector-effect="none" fill-rule="evenodd"/>
    </g>
    <g font-size="7.8" stroke-opacity="1" fill="none" font-family="MS Shell Dlg 2" stroke-linecap="square" font-weight="400" stroke-width="1" transform="matrix(0.999538,0,0,0.999538,295.022,270.011)" font-style="normal" stroke="#000000" stroke-linejoin="bevel">
      <text font-size="7.8" y="17" fill="#000000" font-family="MS Shell Dlg 2" x="4" font-weight="400" fill-opacity="1" font-style="normal" stroke="none" xml:space="preserve">Hello World</text>
    </g>
    <g font-size="7.8" stroke-opacity="1" fill="#0000ff" font-family="MS Shell Dlg 2" stroke-linecap="square" font-weight="400" stroke-width="3" fill-opacity="1" transform="matrix(0.999538,0,0,0.999538,295.022,270.011)" font-style="normal" stroke="#ff0000" stroke-linejoin="bevel">
      <path d="M12,-141 L-292,-178 L-192,-1 L-51,-29 L12,-141" vector-effect="none" fill-rule="evenodd"/>
    </g>
    <g font-size="7.8" stroke-opacity="1" fill="#0000ff" font-family="MS Shell Dlg 2" stroke-linecap="square" font-weight="400" stroke-width="3" fill-opacity="1" transform="matrix(0.999538,0,0,0.999538,295.022,270.011)" font-style="normal" stroke="#ff0000" stroke-linejoin="bevel">
      <path d="M-12,-234 L-183,-241 L-131,-156 L8,-162 L-17,-224 L-12,-234" vector-effect="none" fill-rule="evenodd"/>
    </g>
  </g>
</svg>
